<svg id="Layer_1" data-name="Layer 1" xmlns="http://www.w3.org/2000/svg" viewBox="0 0 470.21 253.71"><defs><style>.cls-1{fill:#303444;}.cls-2{fill:#cac9cd;}.cls-3{fill:#848489;}.cls-4{fill:#ee731b;}.cls-5{fill:#fff;}.cls-6{fill:#ffcf02;}.cls-7{fill:#222321;}.cls-8{fill:#cfcece;}.cls-9{fill:#b3b3b3;}.cls-10{fill:#9a9897;}.cls-11{fill:#f6a304;}.cls-12{fill:#d9850b;}.cls-13{fill:#6f6e6e;}.cls-14{fill:#8d8b8a;}</style></defs><title>error</title><path class="cls-1" d="M186.79,188.84c22,5-23.44,13.2-58.59,5.53-41.93-9.15-87.52-8.77-93-1s65.34,7.6,82.14,13.44c15.27,5.31-48.93,9.37-34.53,20.31,18.3,13.92,119.37,12.2,143.54,4,54.08-18.34,109.86-6.1,130.36-2.28C400,236.94,506.78,227,427,214.2c-39.55-6.35-32.68-12.79-2.08-16.49,49.69-6,4.65-15.92-30.51-12.87-9.36.81-17,3.43-35.15,4.29-15.81.75-33.93-.88-36.25-3.4-5.86-6.36,48.89-11.1,43.94-16.62-7.33-8.17-76.17-9.57-81.3-1.18-5.59,9.16-27.71,13-62.87,9.95-26.36-2.29-47.89-1.14-55.77,2.76C159.33,184.46,178,186.84,186.79,188.84Z" transform="translate(-14.89 -23.15)"/><rect class="cls-2" x="82.44" y="20.19" width="15.92" height="197.34"/><rect class="cls-2" x="362.54" y="20.19" width="15.92" height="197.34"/><rect class="cls-3" x="70.96" y="210.89" width="38.86" height="9.02"/><rect class="cls-3" x="351.07" y="210.89" width="38.86" height="9.02"/><rect class="cls-4" x="57.03" y="20.19" width="346.84" height="43.23"/><rect class="cls-4" x="57.03" y="89.77" width="346.84" height="43.23"/><polygon class="cls-5" points="351.07 20.19 363.06 41.81 375.04 63.42 401.39 63.42 389.42 41.81 377.43 20.19 351.07 20.19"/><polygon class="cls-5" points="353.97 89.77 365.81 111.39 377.66 133 403.67 133 391.83 111.39 379.98 89.77 353.97 89.77"/><polygon class="cls-5" points="273.04 20.19 286.5 41.81 299.93 63.42 329.52 63.42 316.07 41.81 302.61 20.19 273.04 20.19"/><polygon class="cls-5" points="279.99 89.77 292.33 111.39 304.68 133 331.8 133 319.46 111.39 307.09 89.77 279.99 89.77"/><polygon class="cls-5" points="204.31 20.19 217.01 41.81 229.69 63.42 257.63 63.42 244.95 41.81 232.24 20.19 204.31 20.19"/><polygon class="cls-5" points="210.96 89.77 222.62 111.39 234.28 133 259.93 133 248.27 111.39 236.61 89.77 210.96 89.77"/><polygon class="cls-5" points="136.25 20.19 148.04 41.81 159.81 63.42 185.76 63.42 173.97 41.81 162.18 20.19 136.25 20.19"/><polygon class="cls-5" points="136.52 89.77 148.79 111.39 161.06 133 188.04 133 175.76 111.39 163.47 89.77 136.52 89.77"/><polygon class="cls-5" points="65.05 89.77 77.33 111.39 89.6 133 116.57 133 104.3 111.39 92 89.77 65.05 89.77"/><polygon class="cls-5" points="66.41 20.19 77.72 41.81 89 63.42 113.86 63.42 102.58 41.81 91.27 20.19 66.41 20.19"/><path class="cls-6" d="M324.64,143.35,257,30.29a14.63,14.63,0,0,0-25.13,0L164.18,143.35a14.65,14.65,0,0,0,12.58,22.17h135.3A14.65,14.65,0,0,0,324.64,143.35Z" transform="translate(-14.89 -23.15)"/><path class="cls-7" d="M310.9,158.41h-133a9.1,9.1,0,0,1-7.81-13.77L236.6,33.53a9.09,9.09,0,0,1,15.61,0l66.5,111.11a9.1,9.1,0,0,1-7.81,13.77ZM244.4,34.53a3.58,3.58,0,0,0-3.14,1.79l-66.5,111.11a3.67,3.67,0,0,0,3.15,5.55h133a3.67,3.67,0,0,0,3.15-5.55L247.55,36.32A3.58,3.58,0,0,0,244.4,34.53Z" transform="translate(-14.89 -23.15)"/><path class="cls-7" d="M243.78,57.55a7.08,7.08,0,0,0-6.24,7.5l3.07,52.3a3.8,3.8,0,0,0,7.59,0l3.08-52.6A6.88,6.88,0,0,0,243.78,57.55Z" transform="translate(-14.89 -23.15)"/><path class="cls-7" d="M251.29,134.54a6.89,6.89,0,1,1-6.89-6.89A6.88,6.88,0,0,1,251.29,134.54Z" transform="translate(-14.89 -23.15)"/><path class="cls-8" d="M73.26,249.52c0,1.73-13.06,3.14-29.18,3.14s-29.19-1.41-29.19-3.14,13.07-3.15,29.19-3.15S73.26,247.78,73.26,249.52Z" transform="translate(-14.89 -23.15)"/><rect class="cls-9" x="61.44" y="143.39" width="34.27" height="9.42" transform="translate(-102.9 143.88) rotate(-68.53)"/><path class="cls-10" d="M71.38,141.59l16.3,6.4c23.18,8.95,26.68,15.35,28.17,11.32,1.92-5.17,5.38-16.85-21.52-27.92L78,125a2.32,2.32,0,0,0-3,1.3l-4.92,12.27A2.34,2.34,0,0,0,71.38,141.59Z" transform="translate(-14.89 -23.15)"/><rect class="cls-9" x="64.42" y="130.59" width="13.49" height="2.85" transform="translate(-92.74 125.81) rotate(-68.16)"/><path class="cls-11" d="M39.27,250l-1.09-.42a6.91,6.91,0,0,1-3.9-8.92l30-76.43a6.9,6.9,0,0,1,8.91-3.89l1.09.42a6.91,6.91,0,0,1,3.9,8.92l-30,76.43A6.9,6.9,0,0,1,39.27,250Z" transform="translate(-14.89 -23.15)"/><rect class="cls-12" x="67.1" y="152" width="9.9" height="25.55" rx="4.56" transform="translate(-122.54 148.58) rotate(-68.6)"/><rect class="cls-10" x="54.75" y="125.4" width="22.25" height="9.42" rx="4.34" transform="translate(-94.19 120.79) rotate(-68.59)"/><rect class="cls-12" x="13.09" y="208.23" width="74.43" height="1.28" rx="0.59" transform="translate(-177.41 156.39) rotate(-68.61)"/><path class="cls-12" d="M40.64,245.05l-.09,0a.58.58,0,0,1-.34-.76l26.73-68.2a.59.59,0,0,1,.77-.34l.09,0a.59.59,0,0,1,.33.76L41.4,244.72A.59.59,0,0,1,40.64,245.05Z" transform="translate(-14.89 -23.15)"/><path class="cls-12" d="M44.54,246.58l-.09,0a.58.58,0,0,1-.33-.76l26.73-68.2a.58.58,0,0,1,.76-.34l.1,0A.59.59,0,0,1,72,178L45.31,246.25A.59.59,0,0,1,44.54,246.58Z" transform="translate(-14.89 -23.15)"/><path class="cls-8" d="M485.11,273.77c0,1.7-12.81,3.08-28.61,3.08s-28.61-1.38-28.61-3.08,12.8-3.08,28.61-3.08S485.11,272.07,485.11,273.77Z" transform="translate(-14.89 -23.15)"/><rect class="cls-13" x="422.2" y="203.6" width="11.36" height="19.88" transform="translate(-57.11 278.06) rotate(-37.09)"/><rect class="cls-11" x="393.07" y="134" width="13.88" height="85.32" rx="4.66" transform="translate(-40.52 253.78) rotate(-37.08)"/><rect class="cls-12" x="407.6" y="201.18" width="30.94" height="11.99" rx="5.27" transform="translate(-54.25 273.87) rotate(-37.09)"/><path class="cls-10" d="M406.42,238.67l51.5-38.93,20,26.47c4.28,5.67,2.33,37.57-6.83,44.5s-39.77.92-45.22-6.29Z" transform="translate(-14.89 -23.15)"/><path class="cls-14" d="M413.31,233.46l-6.89,5.21,19.46,25.75c5.45,7.21,36.06,13.21,45.22,6.29,5.26-4,8.14-16.21,8.83-27C457.74,241.44,435.45,237.26,413.31,233.46Z" transform="translate(-14.89 -23.15)"/><path class="cls-12" d="M380.66,144.09h0a.57.57,0,0,1,.8,0L421,196.89a.59.59,0,0,1-.2.78h0a.58.58,0,0,1-.8,0l-39.54-52.77A.58.58,0,0,1,380.66,144.09Z" transform="translate(-14.89 -23.15)"/><path class="cls-12" d="M377.43,146.52h0a.56.56,0,0,1,.8,0l39.54,52.77a.57.57,0,0,1-.2.77h0a.56.56,0,0,1-.8,0l-39.54-52.77A.58.58,0,0,1,377.43,146.52Z" transform="translate(-14.89 -23.15)"/><path class="cls-12" d="M374.16,149h0a.57.57,0,0,1,.8,0l39.54,52.77a.58.58,0,0,1-.19.78h0a.58.58,0,0,1-.8,0L374,149.75A.58.58,0,0,1,374.16,149Z" transform="translate(-14.89 -23.15)"/></svg>