<svg id="Layer_1" data-name="Layer 1" xmlns="http://www.w3.org/2000/svg" viewBox="0 0 439.56 46.93"><defs><style>.cls-1{fill:#1c75bc;}.cls-2{fill:#939598;}</style></defs><path class="cls-1" d="M2.72,2.23H42.26v9.91H2.72ZM14.6,14.51H30.39V47.77H14.6Z" transform="translate(-2.72 -1.53)"/><path class="cls-1" d="M125.77,47.77H111.12L127.39,4.29l6.72,18.08Zm19-5h-14.9l3.16-9h8.24L129,2.23h14.8L162,47.77H146.64Z" transform="translate(-2.72 -1.53)"/><path class="cls-1" d="M165.62,38.06h4.57V11.91h-4.57V2.23h24.31v9.68h-4.57V38.06h4.57v9.71H165.62Z" transform="translate(-2.72 -1.53)"/><path class="cls-1" d="M197.27,47.77V2.23h15.17V47.77Zm17.51-6.45V19.18L225.42,2.23h15.79Zm27.15,6.45H225.52l-5.15-10.6,9-13.49Z" transform="translate(-2.72 -1.53)"/><path class="cls-1" d="M259.47,47.77H244.3V2.23h15.17ZM273,2.23h15.3V47.77h-15.2V29.27H261.87V20.14H273Z" transform="translate(-2.72 -1.53)"/><path class="cls-1" d="M390.28,47.77H374.15L346.55,2.23h16Zm-43.73,0V6.55l13.21,21.66V47.77ZM390.28,2.23V43.45L377.06,21.69V2.23Z" transform="translate(-2.72 -1.53)"/><path class="cls-1" d="M413.41,38.68h13v9.09H407.34l-9.1-9.09V11.32l9.1-9.09h6.07Zm2.41-27.36V2.23h18.5l8,9.09v4.57H427.11V11.32Zm5.63,11.19h20.83V47.77H428.82V31.54h-7.37Z" transform="translate(-2.72 -1.53)"/><rect class="cls-1" x="45.34" y="0.69" width="41.29" height="8.8"/><rect class="cls-2" x="45.34" y="18.74" width="41.29" height="8.8"/><rect class="cls-1" x="45.34" y="37.45" width="41.29" height="8.8"/><path class="cls-1" d="M326.62,25a9.57,9.57,0,0,1-9.31,9.56h-.25a9.57,9.57,0,0,1-8.58-13.79,9.18,9.18,0,0,1,.53-.92v0a9.57,9.57,0,0,1,16.22.21l0,0c.18.31.35.64.51,1v0A9.56,9.56,0,0,1,326.62,25Z" transform="translate(-2.72 -1.53)"/><path class="cls-2" d="M296.28,35.91v0a1.71,1.71,0,0,0,.13.23v0a1.09,1.09,0,0,0,.08.15h0a1.28,1.28,0,0,0,.11.2l.05.09a23.48,23.48,0,0,0,29.26,10.09l-.09,0-.24,0-.53.09-.31,0h0l-.23,0c-.52.07-1.06.12-1.6.14l-.57,0a19.34,19.34,0,0,1-19-14.37A19.3,19.3,0,0,1,304.87,19a13.73,13.73,0,0,1,.73-1.29l0,0a13.55,13.55,0,0,1,11.44-6.24,14.31,14.31,0,0,1,2.55.23,18.42,18.42,0,0,0-2.57-1A18.15,18.15,0,0,0,312,9.92a17.83,17.83,0,0,0-12.2,4.9,17.85,17.85,0,0,0-3.6,20.87Z" transform="translate(-2.72 -1.53)"/><path class="cls-2" d="M331.77,6.78a19.28,19.28,0,0,1,4,7.56,19.33,19.33,0,0,1-5.36,18.93,19.27,19.27,0,0,1-13,5.32h-.34a13.62,13.62,0,0,1-12.62-8.54,18.32,18.32,0,0,0,.45,2.3,17.74,17.74,0,0,0,17.44,13.21l.53,0a14.33,14.33,0,0,0,1.47-.13l.2,0h0l.27,0,.5-.09.2,0h0l.31-.07.27-.06.27-.06.26-.07.27-.07.24-.08h0l.27-.09.22-.07h.07l.23-.08.22-.08.44-.17.21-.09.47-.2.17-.08.52-.25.22-.11h0l.3-.16.06,0,.12-.07h0l.14-.08h0l.15-.08,0,0,.13-.08h0c.31-.18.62-.39.94-.6h0l.2-.15a10,10,0,0,0,.89-.68l.42-.35c.4-.34.77-.7,1.12-1.06l.31-.33c.06-.07.13-.14.19-.22s.37-.42.56-.65v0l.16-.21a13.79,13.79,0,0,0,.82-1.14l0,0c0-.08.09-.15.14-.23l.12-.18.07-.12,0,0a.41.41,0,0,1,.05-.09l.25-.43v0a.25.25,0,0,0,0-.07l0,0,.07-.13.14-.26a23.38,23.38,0,0,0-6.07-29.13Z" transform="translate(-2.72 -1.53)"/><path class="cls-2" d="M334.8,19.28A17.7,17.7,0,0,0,317.52,1.54h-.92A23.62,23.62,0,0,0,294,20.69a19.4,19.4,0,0,1,4.69-7A18.85,18.85,0,0,1,302.34,11a19.3,19.3,0,0,1,26.34,7l0,0a12.66,12.66,0,0,1,.72,1.36l0,.06a13.63,13.63,0,0,1-1.81,14.1,19.62,19.62,0,0,0,1.64-1.38A17.62,17.62,0,0,0,334.8,19.28Z" transform="translate(-2.72 -1.53)"/></svg>