<svg id="Layer_1" data-name="Layer 1" xmlns="http://www.w3.org/2000/svg" viewBox="0 0 245.85 244.54"><defs><style>.cls-1{fill:#1c75bc;}.cls-2{fill:#939598;}</style></defs><rect class="cls-1" y="218.67" width="22.12" height="5.55"/><rect class="cls-1" x="6.64" y="225.55" width="8.83" height="18.6"/><polygon class="cls-1" points="69.73 219.82 60.63 244.15 68.82 244.15 73.49 229.94 69.73 219.82"/><polygon class="cls-1" points="70.65 218.67 77.46 236.32 72.86 236.32 71.09 241.37 79.42 241.37 80.5 244.15 89.08 244.15 78.92 218.67 70.65 218.67"/><polygon class="cls-1" points="91.11 224.09 93.67 224.09 93.67 238.72 91.11 238.72 91.11 244.15 104.7 244.15 104.7 238.72 102.15 238.72 102.15 224.09 104.7 224.09 104.7 218.67 91.11 218.67 91.11 224.09"/><polygon class="cls-1" points="121.73 238.22 124.61 244.15 133.79 244.15 126.76 230.67 121.73 238.22"/><polygon class="cls-1" points="124.55 218.67 118.6 228.16 118.6 240.54 133.38 218.67 124.55 218.67"/><rect class="cls-1" x="108.81" y="218.67" width="8.49" height="25.48"/><polygon class="cls-1" points="151.18 228.69 144.94 228.69 144.94 233.8 151.24 233.8 151.24 244.15 159.74 244.15 159.74 218.67 151.18 218.67 151.18 228.69"/><rect class="cls-1" x="135.11" y="218.67" width="8.49" height="25.48"/><polygon class="cls-1" points="192.3 218.67 207.74 244.15 216.76 244.15 201.27 218.67 192.3 218.67"/><polygon class="cls-1" points="192.3 244.15 199.69 244.15 199.69 233.21 192.3 221.09 192.3 244.15"/><polygon class="cls-1" points="209.37 229.56 216.76 241.73 216.76 218.67 209.37 218.67 209.37 229.56"/><polygon class="cls-1" points="229.7 218.67 226.3 218.67 221.21 223.76 221.21 239.06 226.3 244.15 236.97 244.15 236.97 239.06 229.7 239.06 229.7 218.67"/><polygon class="cls-1" points="234.19 235.07 238.32 235.07 238.32 244.15 245.84 244.15 245.84 230.02 234.19 230.02 234.19 235.07"/><polygon class="cls-1" points="231.04 218.67 231.04 223.76 237.36 223.76 237.36 226.31 245.84 226.31 245.84 223.76 241.39 218.67 231.04 218.67"/><rect class="cls-1" x="25.36" y="218.67" width="23.09" height="4.92"/><rect class="cls-2" x="25.36" y="228.77" width="23.09" height="4.92"/><rect class="cls-1" x="25.36" y="239.23" width="23.09" height="4.92"/><path class="cls-1" d="M157.12,77.24l-.1-.17a38.41,38.41,0,0,0-65.14-.83l0,.06A36.49,36.49,0,0,0,89.75,80a38.41,38.41,0,0,0,34.44,55.38h1a38.42,38.42,0,0,0,34-54.19l0-.06A36.93,36.93,0,0,0,157.12,77.24Z" transform="translate(-2.08 -2.73)"/><path class="cls-2" d="M159.87,184.29l-.36.07-1,.19c-.67.13-1.4.25-2.13.37l-1.24.19h-.06l-.9.13c-2.1.28-4.28.47-6.44.57-.76,0-1.52.06-2.29.07a76.56,76.56,0,0,1-23.35-3.19A77.6,77.6,0,0,1,75.23,72.82a54.16,54.16,0,0,1,2.92-5.19l.1-.15A54.41,54.41,0,0,1,124.19,42.4a56.07,56.07,0,0,1,10.25.94,72.6,72.6,0,0,0-30.74-6.93A70.72,70.72,0,0,0,68.22,46a71.19,71.19,0,0,0-28,93.91c.15.29.3.59.46.88l.06.13c.17.32.33.63.51.94l0,.07c.11.2.22.4.34.6l0,.06.45.8c.07.11.14.22.2.33a94.44,94.44,0,0,0,117.54,40.56Z" transform="translate(-2.08 -2.73)"/><path class="cls-2" d="M166.86,175.89h0l.07,0,.15,0c.32-.1.63-.21.95-.33s.59-.2.87-.31l1.78-.68.83-.34c.65-.27,1.27-.54,1.88-.81l.72-.33c.69-.31,1.37-.64,2.06-1l.91-.46.06,0c.41-.2.82-.42,1.22-.64l.22-.12.49-.28.08-.05.56-.31.08-.05.59-.34.1-.06c.19-.11.36-.2.52-.31l.06,0c1.25-.74,2.52-1.56,3.77-2.43l.07,0,.81-.58q1.84-1.31,3.58-2.73c.56-.46,1.11-.92,1.66-1.4,1.6-1.39,3.11-2.83,4.5-4.28.43-.44.85-.88,1.26-1.33.25-.28.51-.56.76-.85.77-.86,1.5-1.72,2.24-2.65l.06-.07c.22-.28.44-.55.65-.83,1.13-1.44,2.23-3,3.29-4.6l.13-.19.57-.9.47-.76.29-.45.13-.22.21-.37c.35-.58.67-1.14,1-1.7l.07-.14.15-.27.07-.12c.11-.18.2-.36.29-.54l.56-1a94,94,0,0,0-24.37-117A77.12,77.12,0,0,1,201.77,74a77.55,77.55,0,0,1-76.2,77.56c-.44,0-.91,0-1.38,0A54.69,54.69,0,0,1,73.5,117.28a72.78,72.78,0,0,0,1.81,9.26A70.83,70.83,0,0,0,108.58,170a71.56,71.56,0,0,0,15.36,6.62,70.36,70.36,0,0,0,21.44,2.93c.71,0,1.41,0,2.11-.06,2-.1,4-.27,5.92-.53l.8-.11h.1l1.11-.17c.68-.11,1.34-.22,2-.35l.81-.16h.08c.41-.08.83-.17,1.24-.27l1.09-.24,1.08-.27,1.06-.27,1-.3,1-.29.08,0,1.09-.34Z" transform="translate(-2.08 -2.73)"/><path class="cls-2" d="M65.07,40.55A77.58,77.58,0,0,1,170.89,68.7l.1.17a53.29,53.29,0,0,1,2.89,5.48,2.29,2.29,0,0,1,.11.23,54.65,54.65,0,0,1-7.25,56.63,73.6,73.6,0,0,0,6.58-5.54A70.71,70.71,0,0,0,195.47,74,71.18,71.18,0,0,0,126,2.75h-2.75l-1,0c-45,.86-82.68,34-90.79,76.92A77.33,77.33,0,0,1,65.07,40.55Z" transform="translate(-2.08 -2.73)"/><path class="cls-1" d="M182.76,231.93c-.09-.18-.18-.36-.29-.54v0a5.35,5.35,0,0,0-9.07-.12h0c-.1.17-.2.34-.29.52a5.35,5.35,0,0,0,4.8,7.71H178a5.36,5.36,0,0,0,4.74-7.55Z" transform="translate(-2.08 -2.73)"/><path class="cls-2" d="M182.67,246.33l-.3,0-.17,0h0l-.12,0c-.3,0-.6.07-.9.08h-.32a10.85,10.85,0,0,1-3.25-.44,10.8,10.8,0,0,1-6.53-15.3,7.53,7.53,0,0,1,.41-.73v0a7.6,7.6,0,0,1,6.4-3.49,8.33,8.33,0,0,1,1.42.13,11.73,11.73,0,0,0-1.43-.55,10.34,10.34,0,0,0-2.85-.41,9.93,9.93,0,0,0-4.94,1.33,10.38,10.38,0,0,0-1.88,1.41,10,10,0,0,0-2,11.67l.06.12v0l.07.13h0l0,.08h0l.06.11,0,.05a13.14,13.14,0,0,0,16.36,5.65h0Z" transform="translate(-2.08 -2.73)"/><path class="cls-2" d="M188.33,228.18a10.8,10.8,0,0,1-10.25,13.56h-.19a7.61,7.61,0,0,1-7.06-4.77,9.89,9.89,0,0,0,4.88,7.34,10.09,10.09,0,0,0,2.14.92,9.73,9.73,0,0,0,3,.41h.29a7.74,7.74,0,0,0,.83-.07l.11,0h0l.15,0,.28-.05.11,0h0l.17,0,.15,0,.15,0,.15,0,.14,0,.14,0h0l.15-.05.13,0h0l.14-.05.12,0,.24-.1.12-.05.26-.11.1,0,.29-.14.13-.07h0l.17-.09,0,0,.07,0h0l.08-.05h0l.08,0h0l.07,0h0l.53-.34h0l.12-.08.5-.38.23-.2c.22-.19.43-.39.62-.59l.18-.19.11-.12.31-.37h0l.09-.11c.15-.2.31-.42.45-.64l0,0,.08-.13.07-.1a.09.09,0,0,1,0-.06v0l0-.06c0-.08.1-.15.14-.23v0l0,0v0a.25.25,0,0,0,0-.07l.08-.15A13.09,13.09,0,0,0,186.12,224,10.88,10.88,0,0,1,188.33,228.18Z" transform="translate(-2.08 -2.73)"/><path class="cls-2" d="M169.65,226.28a10.81,10.81,0,0,1,14.74,3.92v0a8,8,0,0,1,.41.76v0a7.64,7.64,0,0,1,.67,3.12,7.56,7.56,0,0,1-1.68,4.77c.32-.24.62-.5.92-.77a10,10,0,0,0,2.75-9.74,10,10,0,0,0-9.34-7.38h-.51A13.2,13.2,0,0,0,165,231.73a10.73,10.73,0,0,1,2.62-3.92A11,11,0,0,1,169.65,226.28Z" transform="translate(-2.08 -2.73)"/></svg>